<svg width="24" height="24" viewBox="0 0 24 24" fill="none" xmlns="http://www.w3.org/2000/svg">
<g opacity="0.3">
<path fill-rule="evenodd" clip-rule="evenodd" d="M22.0001 12C22.0001 17.5229 17.5229 22 12.0001 22C6.47721 22 2.00006 17.5229 2.00006 12C2.00006 6.47717 6.47721 2.00002 12.0001 2.00002C17.5229 2.00002 22.0001 6.47717 22.0001 12ZM15.7072 9.70712C16.0977 9.3166 16.0977 8.68343 15.7072 8.29291C15.3166 7.90238 14.6835 7.90238 14.293 8.29291L12.0001 10.5858L9.70717 8.29291C9.31664 7.90238 8.68348 7.90238 8.29295 8.29291C7.90243 8.68343 7.90243 9.3166 8.29295 9.70712L10.5858 12L8.29295 14.2929C7.90243 14.6834 7.90243 15.3166 8.29295 15.7071C8.68348 16.0976 9.31664 16.0976 9.70717 15.7071L12.0001 13.4142L14.293 15.7071C14.6835 16.0976 15.3166 16.0976 15.7072 15.7071C16.0977 15.3166 16.0977 14.6834 15.7072 14.2929L13.4143 12L15.7072 9.70712Z" fill="#333333"/>
</g>
</svg>
